<svg xmlns="http://www.w3.org/2000/svg" width="1200" height="630" viewBox="0 0 1200 630">
  <defs>
    <linearGradient id="bg" x1="0" y1="0" x2="1" y2="1">
      <stop offset="0" stop-color="#050816"/>
      <stop offset="1" stop-color="#0b1220"/>
    </linearGradient>
    <radialGradient id="glow1" cx="35%" cy="30%" r="60%">
      <stop offset="0" stop-color="#6366F1" stop-opacity="0.55"/>
      <stop offset="1" stop-color="#6366F1" stop-opacity="0"/>
    </radialGradient>
    <radialGradient id="glow2" cx="75%" cy="40%" r="60%">
      <stop offset="0" stop-color="#EC4899" stop-opacity="0.42"/>
      <stop offset="1" stop-color="#EC4899" stop-opacity="0"/>
    </radialGradient>
  </defs>
  <rect width="1200" height="630" fill="url(#bg)"/>
  <rect width="1200" height="630" fill="url(#glow1)"/>
  <rect width="1200" height="630" fill="url(#glow2)"/>

  <g fill="#F9FAFB" font-family="ui-sans-serif,system-ui,-apple-system,Segoe UI,Roboto,Helvetica,Arial">
    <text x="96" y="232" font-size="72" font-weight="700">AI Port</text>
    <text x="96" y="312" font-size="40" opacity="0.92">Multi‑Model AI Aggregator for Chat</text>
    <text x="96" y="400" font-size="28" opacity="0.72">Early access • In development</text>
  </g>

  <g font-family="ui-sans-serif,system-ui,-apple-system,Segoe UI,Roboto,Helvetica,Arial">
    <g fill="rgba(255,255,255,0.12)" stroke="rgba(255,255,255,0.12)" stroke-width="1">
      <rect x="740" y="130" rx="20" ry="20" width="120" height="36"/>
      <rect x="874" y="130" rx="20" ry="20" width="110" height="36"/>
      <rect x="996" y="130" rx="20" ry="20" width="130" height="36"/>

      <rect x="700" y="186" rx="20" ry="20" width="140" height="36"/>
      <rect x="852" y="186" rx="20" ry="20" width="120" height="36"/>
      <rect x="984" y="186" rx="20" ry="20" width="150" height="36"/>
    </g>
    <g fill="rgba(255,255,255,0.72)" font-size="16">
      <text x="772" y="154">GPT</text>
      <text x="906" y="154">Claude</text>
      <text x="1026" y="154">Gemini</text>

      <text x="740" y="210">Streaming</text>
      <text x="885" y="210">Tools</text>
      <text x="1030" y="210">Workflows</text>
    </g>
  </g>
</svg>


